<svg width="40" height="40" fill="none" xmlns="http://www.w3.org/2000/svg"><path fill-rule="evenodd" clip-rule="evenodd" d="M20 40c11.046 0 20-8.954 20-20S31.046 0 20 0 0 8.954 0 20s8.954 20 20 20z" fill="#C62D2D" fill-opacity=".91"/><path fill-rule="evenodd" clip-rule="evenodd" d="M18.642 18.245c.653-.655.71-1.564.71-2.076 0-2.046-1.223-5.23-3.582-5.23-.74 0-1.536.369-1.991.938-.483.597-.626 1.364-.626 2.103 0 1.905 1.11 5.061 3.554 5.061.711 0 1.479-.341 1.934-.796zm-.826 5.401c-.227-.029-.37-.029-.653-.029-.256 0-1.792.057-2.986.456-.625.227-2.444.909-2.444 2.928 0 2.018 1.961 3.467 5.003 3.467 2.73 0 4.18-1.307 4.18-3.069 0-1.45-.939-2.217-3.1-3.753zm8.338-2.877h-3.077v-1.538h3.077v-3.077h1.538v3.077h3.077v1.538h-3.077v3.077h-1.538V20.77zm-6.319-9.746c.653.54 2.018 1.677 2.018 3.839 0 2.103-1.194 3.099-2.387 4.036-.37.37-.797.768-.797 1.394 0 .625.427.967.739 1.222l1.024.796c1.251 1.051 2.388 2.018 2.388 3.98 0 2.672-2.587 5.373-7.477 5.373-4.122 0-6.112-1.96-6.112-4.065 0-1.024.512-2.473 2.19-3.469 1.762-1.08 4.15-1.221 5.429-1.307-.398-.512-.853-1.053-.853-1.933 0-.484.142-.769.285-1.11-.314.029-.626.058-.91.058-3.014 0-4.72-2.247-4.72-4.464 0-1.307.597-2.758 1.82-3.81C14.092 10.227 16.026 10 17.56 10h5.856l-1.82 1.023h-1.762z" fill="#fff"/></svg>