<svg width="40" height="40" fill="none" xmlns="http://www.w3.org/2000/svg"><path d="M20 0c11.044 0 20 8.956 20 20s-8.956 20-20 20S0 31.044 0 20 8.956 0 20 0z" fill="#1DA1F2"/><path d="M15.36 30.16c9.432 0 14.596-7.816 14.596-14.596 0-.22 0-.444-.016-.664a10.427 10.427 0 002.56-2.656 10.19 10.19 0 01-2.944.808 5.142 5.142 0 002.256-2.836 10.263 10.263 0 01-3.256 1.244 5.136 5.136 0 00-7.256-.224 5.137 5.137 0 00-1.484 4.9 14.57 14.57 0 01-10.572-5.36 5.134 5.134 0 001.588 6.848 5.103 5.103 0 01-2.328-.64v.064a5.13 5.13 0 004.116 5.028 5.15 5.15 0 01-2.316.088 5.14 5.14 0 004.792 3.564 10.277 10.277 0 01-7.588 2.124 14.45 14.45 0 007.852 2.304" fill="#fff"/></svg>