<svg width="23" height="19" viewBox="0 0 23 19" fill="none" xmlns="http://www.w3.org/2000/svg">
<path fill-rule="evenodd" clip-rule="evenodd" d="M8.84513 0.262069C9.22466 -0.0994084 9.82648 -0.0851584 10.188 0.294844C10.5499 0.674846 10.5347 1.2762 10.1552 1.63815L2.8677 8.54991H21.8502C22.3746 8.54991 22.8002 8.97552 22.8002 9.49992C22.8002 10.0243 22.3746 10.4499 21.8502 10.4499H2.8981L10.1552 17.3622C10.5352 17.7241 10.5499 18.3255 10.188 18.7055C10.0013 18.9012 9.75096 19 9.50016 19C9.26456 19 9.02896 18.913 8.84513 18.7378L0.55681 10.8432C0.197706 10.4846 0.000106812 10.0077 0.000106812 9.49992C0.000106812 8.99214 0.197708 8.51524 0.573435 8.14046L8.84513 0.262069Z" fill="black"/>
</svg>
