<svg width="24" height="19" viewBox="0 0 24 19" fill="none" xmlns="http://www.w3.org/2000/svg">
<path fill-rule="evenodd" clip-rule="evenodd" d="M14.6084 0.261946C14.2288 -0.0995304 13.627 -0.0852805 13.2655 0.294722C12.9036 0.674724 12.9188 1.27608 13.2983 1.63803L20.5858 8.54979H1.60326C1.07886 8.54979 0.653259 8.9754 0.653259 9.4998C0.653259 10.0242 1.07886 10.4498 1.60326 10.4498H20.5554L13.2983 17.362C12.9183 17.724 12.9036 18.3253 13.2655 18.7053C13.4522 18.901 13.7025 18.9999 13.9533 18.9999C14.1889 18.9999 14.4245 18.9129 14.6084 18.7376L22.8967 10.8431C23.2558 10.4845 23.4534 10.0076 23.4534 9.4998C23.4534 8.99202 23.2558 8.51512 22.8801 8.14034L14.6084 0.261946Z" fill="black"/>
</svg>
