<svg width="40" height="40" viewBox="0 0 40 40" fill="none" xmlns="http://www.w3.org/2000/svg">
<path d="M40 20C40 31.0455 31.0459 40 20 40C8.9545 40 0 31.0459 0 20C0 8.9545 8.95414 0 20 0C31.0455 0 40 8.95414 40 20Z" fill="#4832DC"/>
<path d="M16.1547 5.36914C16.1547 5.36914 9.88037 5.45061 9.96172 11.0633C10.0434 16.6762 11.1843 21.6388 13.0585 24.4046C14.9324 27.1706 19.7395 34.4104 25.1994 33.6786C25.1994 33.6786 27.8886 33.1088 29.9252 31.807L23.3252 26.682C23.3252 26.682 21.3697 27.9024 20.1474 26.2753C18.9249 24.6487 15.0954 17.0833 15.0954 17.0833C15.0954 17.0833 14.0361 14.6426 16.3993 13.5852L16.1547 5.36914V5.36914Z" fill="white"/>
<path d="M16.8882 5.36914C16.8882 5.36914 17.3771 5.20705 18.2731 5.69473C19.1694 6.18271 19.1694 6.58892 19.1694 6.58892L19.2511 12.2024C19.2511 12.2024 19.0064 12.528 18.6808 12.8528C18.3548 13.1781 17.2955 13.6666 17.1322 13.341C16.9698 13.016 16.8882 5.36914 16.8882 5.36914V5.36914Z" fill="white"/>
<path d="M23.8739 26.0822L25.6883 25.1363C25.6883 25.1363 26.0956 25.0554 26.7473 25.4616C27.3993 25.8693 30.8217 28.5538 30.8217 28.5538C30.8217 28.5538 31.392 29.0418 31.229 29.6112C31.0663 30.1807 30.6587 31.401 30.6587 31.401L23.8739 26.0822V26.0822Z" fill="white"/>
</svg>
