<svg width="102" height="88" fill="none" xmlns="http://www.w3.org/2000/svg"><path d="M90.484 63.871H57.58v22.71h32.903V63.87z" fill="#D3A06C"/><path d="M41.129 63.871c1.817 0 3.29-1.27 3.29-2.839 0-1.567-1.473-2.838-3.29-2.838s-3.29 1.27-3.29 2.838 1.473 2.839 3.29 2.839zm-13.161 0c1.817 0 3.29-1.27 3.29-2.839 0-1.567-1.473-2.838-3.29-2.838s-3.29 1.27-3.29 2.838 1.473 2.839 3.29 2.839zm-13.162 0c1.818 0 3.29-1.27 3.29-2.839 0-1.567-1.472-2.838-3.29-2.838-1.817 0-3.29 1.27-3.29 2.838s1.473 2.839 3.29 2.839z" fill="#FF826E"/><path d="M77.306 7.097H67.65c-1.99 0-3.85.582-5.347 1.59-1.48.993-2.583 2.412-3.076 4.087-4.54 0-8.226 3.18-8.226 7.097v2.796c0 1.973.46 3.89 1.333 5.65C51.51 29.068 51 30.104 51 31.24c0 1.178.56 2.229 1.448 2.995.888.766 2.105 1.249 3.471 1.249h1.744c.247 2.498 1.234 4.854 2.78 6.884.444.568.922 1.121 1.448 1.632H31.258v5.89c0 1.448-1.365 2.626-3.043 2.626-1.169 0-2.221-.567-2.732-1.447L21.387 44h-9.262c-3.159 0-5.824-2.044-6.186-4.755L1.679 7.41c-.017-.213-.034-.412-.034-.624 0-2.967 2.78-5.366 6.219-5.366h63.24c1.71 0 3.274.597 4.392 1.576 1.136.965 1.827 2.313 1.827 3.79 0 .113 0 .212-.017.312z" fill="#E6E9ED"/><path d="M37.839 15.613H14.806v11.355H37.84V15.613z" fill="#F0D0B4"/><path d="M31.258 21.29h-9.87v5.678h9.87V21.29z" fill="#AAB2BD"/><path d="M41.129 15.613H11.517l14.806-8.516 14.806 8.516z" fill="#FF826E"/><path d="M73.111 22.71c.082.823.033 1.646-.214 2.47l-.51 1.788-1.25-1.079c-2.419-2.086-5.38-3.662-8.62-4.598-2.864.823-4.821 3.094-4.936 5.677h-1.646c-1.414 0-2.698.51-3.602 1.348A12.679 12.679 0 0151 22.667v-2.796c0-3.917 3.685-7.097 8.226-7.097.493-1.674 1.596-3.094 3.076-4.087 1.497-1.008 3.356-1.59 5.347-1.59h11.927c9.658 0 17.489 6.756 17.489 15.088 0 2.086-.51 4.144-1.448 6.032-.889-.766-2.123-1.25-3.488-1.25h-1.645l-.411-.212c-5.117-2.64-10.957-4.045-16.93-4.045h-.032z" fill="#656D78"/><path d="M52.645 70.968c-.576 0-1.135.085-1.645.255V68.13c0-5.961 4.327-11.298 10.825-13.328l7.272-2.285 4.935 8.516 4.936-8.516 7.271 2.285c6.499 2.03 10.825 7.367 10.825 13.328v3.094a5.211 5.211 0 00-1.645-.255h-1.645c-1.81 0-3.29 1.277-3.29 2.838v-9.935H57.58v9.935c0-1.56-1.481-2.838-3.29-2.838h-1.646z" fill="#5CD6B3"/><path d="M70.742 63.871h-6.58v11.355h6.58V63.87z" fill="#B27946"/><path d="M47.71 78.064v-2.838c0-1.86 1.365-3.435 3.29-4.003.51-.17 1.07-.255 1.645-.255h1.645c1.81 0 3.29 1.277 3.29 2.838v5.678c0 1.561-1.48 2.839-3.29 2.839h-1.645c-2.73 0-4.935-1.902-4.935-4.258zm52.645-2.838v2.838c0 2.357-2.205 4.259-4.936 4.259h-1.645c-1.81 0-3.29-1.278-3.29-2.84v-5.676c0-1.562 1.48-2.84 3.29-2.84h1.645c.576 0 1.136.086 1.645.256 1.925.568 3.291 2.144 3.291 4.003zM97.064 31.24c0 2.342-2.204 4.244-4.902 4.244h-1.76a9.47 9.47 0 00.082-1.363v-7.153h1.645c1.365 0 2.6.482 3.488 1.249.888.766 1.447 1.845 1.447 3.023z" fill="#F0D0B4"/><path d="M90.484 26.968v7.153c0 .454-.017.909-.082 1.363-.56 5.436-4.541 10.233-10.43 12.405-.61.227-1.004.738-1.004 1.306v3.321l-4.936 8.516-4.935-8.516v-3.321c0-.568-.395-1.079-1.004-1.306-2.435-.894-4.54-2.243-6.202-3.889a16.016 16.016 0 01-1.448-1.632c-1.546-2.03-2.533-4.386-2.78-6.884a9.469 9.469 0 01-.082-1.363v-7.153c.115-2.584 2.072-4.855 4.935-5.678 3.241.937 6.202 2.512 8.62 4.599l1.251 1.079.51-1.789c.247-.823.296-1.646.214-2.47h.033c5.972 0 11.812 1.406 16.929 4.046l.41.213z" fill="#F0D0B4"/><path d="M57.58 34.121c0 .454.017.909.083 1.363h-1.744c-1.365 0-2.583-.483-3.471-1.25C51.559 33.469 51 32.419 51 31.24c0-1.135.51-2.172 1.333-2.924.904-.837 2.188-1.348 3.602-1.348h1.646v7.152z" fill="#F0D0B4"/><path d="M82.26 31.226c.908 0 1.645-.636 1.645-1.42 0-.783-.737-1.419-1.645-1.419-.909 0-1.645.636-1.645 1.42 0 .783.736 1.419 1.645 1.419zm-16.452 0c.909 0 1.645-.636 1.645-1.42 0-.783-.736-1.419-1.645-1.419s-1.645.636-1.645 1.42c0 .783.737 1.419 1.645 1.419z" fill="#000"/><path d="M98.71 70.338v-2.203c0-6.54-4.788-12.438-11.913-14.674l-6.18-1.938v-2.33c5.994-2.215 10.158-6.875 11.232-12.29h.306c3.615 0 6.556-2.538 6.556-5.656 0-1.23-.464-2.365-1.234-3.297.802-1.848 1.233-3.78 1.233-5.765 0-9.103-8.583-16.508-19.134-16.508h-.738C78.219 2.464 74.998 0 71.1 0H7.867C3.531 0 0 3.046 0 6.787c0 .262.018.521.053.778L4.31 39.411c.46 3.425 3.819 6.008 7.817 6.008h8.243l3.638 6.277c.801 1.382 2.41 2.24 4.2 2.24 2.59 0 4.695-1.817 4.695-4.051v-4.466h28.269c1.742 1.58 3.856 2.88 6.276 3.774l.002 2.33-6.18 1.938c-7.126 2.236-11.914 8.132-11.914 14.674v2.203c-1.957.983-3.291 2.794-3.291 4.888v2.838c0 3.132 2.95 5.678 6.58 5.678h1.645c.58 0 1.129-.102 1.645-.261V88H92.13v-4.52a5.577 5.577 0 001.645.262h1.645c3.63 0 6.581-2.546 6.581-5.678v-2.838c0-2.092-1.333-3.903-3.29-4.888zm-13.038-14.21c5.83 1.83 9.747 6.654 9.747 12.007v1.413h-1.645c-.579 0-1.128.103-1.645.261v-7.357h-17.08l4.736-8.17 5.887 1.846zm6.46-22.063l-.003-5.678c1.815 0 3.292 1.282 3.292 2.86 0 1.553-1.464 2.816-3.289 2.818zm3.287-11.88c0 1.315-.228 2.601-.654 3.847a7.422 7.422 0 00-2.636-.484h-.132c-.802-4.805-5.595-8.516-11.384-8.516v2.839c3.435 0 6.385 1.825 7.614 4.41-4.294-1.798-8.984-2.802-13.767-2.96-.438-1.444-1.301-2.791-2.555-3.874l-2.326 2.007c1.44 1.243 2.124 3.007 1.872 4.732-2.427-1.894-5.312-3.351-8.413-4.244l-.522-.148-.52.15c-3.002.862-5.164 3.018-5.827 5.603h-.23c-.984 0-1.909.2-2.748.537a11.216 11.216 0 01-.546-3.41v-2.803c0-3.131 2.952-5.677 6.58-5.677h1.284l.311-1.076c.786-2.71 3.596-4.602 6.834-4.602h11.922c8.736 0 15.843 6.132 15.843 13.668zm-39.506 11.88c-1.802 0-3.266-1.265-3.266-2.818 0-1.577 1.474-2.857 3.288-2.858l-.001 5.677h-.021v-.002zm-26.3 8.516v7.304c0 .667-.632 1.212-1.405 1.212-.535 0-1.017-.257-1.257-.672l-4.547-7.844H12.127c-2.325 0-4.281-1.505-4.55-3.496L3.323 7.24c-.02-.15-.032-.3-.032-.453 0-2.177 2.053-3.948 4.577-3.948h63.234c2.074 0 3.81 1.203 4.37 2.838h-7.817c-4.337 0-8.15 2.315-9.657 5.743-4.865.524-8.642 4.113-8.642 8.451v2.803c0 1.855.393 3.662 1.123 5.395-.707.909-1.122 2.001-1.122 3.178 0 3.118 2.942 5.656 6.581 5.656h.28c.403 2.03 1.24 3.95 2.446 5.678h-29.05zm29.611-8.456l.002-6.927c0-1.92 1.313-3.633 3.316-4.398 2.778.876 5.334 2.281 7.427 4.087l3.31 2.856 1.224-4.214c.13-.448.199-.9.242-1.353 4.958.22 9.79 1.455 14.095 3.61l.004 6.337c.003 5.43-3.735 10.321-9.518 12.46-1.212.447-1.997 1.47-1.997 2.608l-.003 2.99-3.294 5.679-3.29-5.679-.003-2.989c0-1.138-.785-2.16-1.996-2.607-5.783-2.14-9.52-7.029-9.519-12.46zm3.17 22.003l5.887-1.846 4.734 8.17h-17.08v7.358a5.577 5.577 0 00-1.645-.262h-1.643v-1.413c0-5.353 3.917-10.177 9.747-12.007zm3.413 9.162h3.29v8.516h-3.29V65.29zM54.29 80.903h-1.645c-1.815 0-3.29-1.273-3.29-2.839v-2.838c0-1.566 1.476-2.839 3.29-2.839h1.645c.909 0 1.645.636 1.645 1.42v1.419h-3.29v2.838h3.29v1.42c0 .783-.736 1.42-1.645 1.42zm34.549 4.258H59.226V65.29h3.29v11.355h9.871V65.29H88.84v19.871zm9.87-7.097c0 1.566-1.475 2.84-3.29 2.84h-1.645c-.908 0-1.645-.637-1.645-1.42v-1.42h3.29v-2.838h-3.29v-1.42c0-.783.737-1.419 1.645-1.419h1.645c1.815 0 3.29 1.273 3.29 2.839v2.838z" fill="#000"/><path d="M85.548 68.129h-9.87v2.839h9.87v-2.84zm0 5.677h-9.87v2.84h9.87v-2.84zM74.032 45.42c2.657 0 5.046-1.274 6.234-3.325l.172-.3-2.943-1.27-.172.301c-.627 1.082-1.887 1.755-3.29 1.755-1.404 0-2.664-.673-3.291-1.755l-.173-.3-2.943 1.271.173.3c1.188 2.05 3.576 3.322 6.233 3.322zm-.909-5.827l1.817-.785c.787-.34 1.372-.921 1.65-1.64A2.47 2.47 0 0076.413 35l-.736-1.27v-2.504h-3.29v2.839c0 .22.06.438.173.634l.91 1.568-1.818.785 1.47 2.54zM26.323 5.39L6.083 17.033h7.078v11.355h26.323V17.032h7.079L26.323 5.391zm0 3.413l9.372 5.39H16.95l9.373-5.39zm3.29 16.745h-6.58V22.71h6.58v2.838zm6.58 0h-3.29v-5.677H19.742v5.677h-3.29v-8.516h19.742v8.516zm-19.741 5.678h-3.29v2.839h3.29v-2.84zm0 5.677h-3.29v2.839h3.29v-2.839zm23.032-5.677H19.742v2.839h19.742v-2.84zm0 5.677H19.742v2.839h19.742v-2.839zM27.968 56.774c-2.721 0-4.936 1.91-4.936 4.258s2.215 4.258 4.936 4.258c2.72 0 4.935-1.91 4.935-4.258 0-2.347-2.214-4.258-4.935-4.258zm0 5.678c-.908 0-1.645-.636-1.645-1.42 0-.783.737-1.42 1.645-1.42s1.645.637 1.645 1.42c0 .784-.737 1.42-1.645 1.42zm13.161-5.678c-2.721 0-4.935 1.91-4.935 4.258s2.214 4.258 4.935 4.258c2.721 0 4.936-1.91 4.936-4.258 0-2.347-2.215-4.258-4.936-4.258zm0 5.678c-.908 0-1.645-.636-1.645-1.42 0-.783.737-1.42 1.645-1.42s1.645.637 1.645 1.42c0 .784-.737 1.42-1.645 1.42zm-26.323-5.678c-2.72 0-4.935 1.91-4.935 4.258s2.214 4.258 4.935 4.258c2.722 0 4.936-1.91 4.936-4.258 0-2.347-2.214-4.258-4.936-4.258zm0 5.678c-.908 0-1.645-.636-1.645-1.42 0-.783.737-1.42 1.646-1.42.908 0 1.645.637 1.645 1.42 0 .784-.737 1.42-1.646 1.42z" fill="#000"/></svg>