<svg width="102" height="88" fill="none" xmlns="http://www.w3.org/2000/svg"><path d="M15.938 33h6.374v-5.5h-6.375V33zm25.5-5.5h6.374V22h-6.374v5.5zm12.75 0h6.374V22h-6.374v5.5zm12.75 0h6.374V22h-6.374v5.5zm-25.5-11h6.374V11h-6.374v5.5zm12.75 0h6.374V11h-6.374v5.5zm12.75 0h6.374V11h-6.374v5.5zm-25.5 33h6.374V44h-6.374v5.5zm12.75 0h6.374V44h-6.374v5.5zm12.75 0h6.374V44h-6.374v5.5zm-25.5 11h6.374V55h-6.374v5.5zm25.5 0h6.374V55h-6.374v5.5zm-25.5 11h6.374V66h-6.374v5.5zm25.5 0h6.374V66h-6.374v5.5zM86.061 66h6.376v-5.5h-6.376V66zm0-16.5V55h6.376v-5.5h-6.376zm0 27.5h6.376v-5.5h-6.376V77zM41.438 38.5h6.374V33h-6.374v5.5zm12.75 0h6.374V33h-6.374v5.5zm12.75 0h6.374V33h-6.374v5.5zm-51 5.5h6.374v-5.5h-6.375V44zm0 11h6.374v-5.5h-6.375V55zm0 11h6.374v-5.5h-6.375V66zm0 11h6.374v-5.5h-6.375V77zm38.25-16.5h6.374V55h-6.374v5.5z" fill="#B0BEC5"/><path fill-rule="evenodd" clip-rule="evenodd" d="M98.813 82.5c0 3.04-2.852 5.5-6.376 5.5H9.564c-3.524 0-6.376-2.46-6.376-5.5V22c0-3.04 2.852-5.5 6.376-5.5h19.124v-11c0-3.04 2.852-5.5 6.375-5.5h44.626c3.523 0 6.374 2.46 6.374 5.5v33h6.376c3.523 0 6.374 2.46 6.374 5.5v38.5zM28.686 22H9.563v60.5h19.126V22zm51-16.5H35.063v77h19.124V66h6.376v16.5h19.124v-77zM92.438 44h-6.374v38.5h6.374V44z" fill="#546E7A"/></svg>