<svg width="102" height="90" fill="none" xmlns="http://www.w3.org/2000/svg"><path fill-rule="evenodd" clip-rule="evenodd" d="M38.25 90h25.5V61.875h-25.5V90zm6.375-11.25H51v-5.625h-6.375V67.5h12.75v16.875h-12.75V78.75zm0-39.375H25.5V56.25h19.125V39.375zm-6.375 11.25h-6.375V45h6.375v5.625zm19.125-11.25V56.25H76.5V39.375H57.375zm12.75 11.25H63.75V45h6.375v5.625z" fill="#B0BEC5"/><path fill-rule="evenodd" clip-rule="evenodd" d="M101.237 43.203c-1.827 4.455-6.62 7.422-11.987 7.422V78.75C89.25 84.963 83.541 90 76.5 90h-6.375v-5.625H76.5c3.514 0 6.375-2.524 6.375-5.625V45h6.375c2.674 0 5.083-1.491 5.993-3.71.912-2.22.143-4.727-1.911-6.238L55.082 6.927C53.939 6.087 52.49 5.625 51 5.625c-1.49 0-2.939.461-4.078 1.302l-5.659 4.159-6.53 4.8-3.393-6.874c-1.018-2.057-3.31-3.387-5.84-3.387-3.517 0-6.375 2.524-6.375 5.625v16.114l-2.294 1.686-8.162 6.001c-2.054 1.511-2.823 4.019-1.911 6.239.909 2.219 3.319 3.71 5.992 3.71h6.375v33.75c0 3.1 2.858 5.625 6.375 5.625h6.375V90H25.5c-7.041 0-12.75-5.037-12.75-11.25V50.625c-5.366 0-10.16-2.967-11.987-7.422-1.828-4.452-.3-9.44 3.825-12.472l8.162-6V11.25C12.75 5.037 18.46 0 25.5 0c5.232 0 9.718 2.788 11.682 6.765l5.657-4.159C45.2.868 48.102 0 51 0c2.898 0 5.799.868 8.162 2.606l38.25 28.125c4.124 3.033 5.653 8.02 3.825 12.472z" fill="#546E7A"/></svg>