<svg width="103" height="93" fill="none" xmlns="http://www.w3.org/2000/svg"><g clip-path="url(#clip0_1207_689)"><path d="M101.702 31.376L95.884 20.65c-1.091-1.97-3.32-3.212-5.76-3.212H51.849l-.679-1.84c-.876-2.372-3.334-3.973-6.107-3.973H6.437c-1.93 0-3.756.78-4.979 2.129C.235 15.099-.255 16.87.125 18.579l12.876 58.125c.6 2.716 3.244 4.671 6.311 4.671h64.375c2.873 0 5.4-1.72 6.19-4.215l12.874-40.687c.557-1.754.167-3.642-1.049-5.097zM90.125 23.25l3.219 5.813H56.14l-2.144-5.813h36.129zm-6.438 52.313H19.312L6.437 17.437h38.625L51.5 34.876h45.062L83.687 75.563z" fill="#FFA000"/></g><defs><clipPath id="clip0_1207_689"><path fill="#fff" d="M0 0h103v93H0z"/></clipPath></defs></svg>