<svg width="102" height="98" fill="none" xmlns="http://www.w3.org/2000/svg"><path d="M62.077 17.456l-17.85 65.002c-.399-.077-4.543-2.144-6.216-2.833-4.702-1.837-10.758-3.445-15.619-4.9 1.195-3.522 1.435-7.426.16-11.178-1.435-4.211-4.064-8.116-4.782-12.633-1.036-6.278 1.435-12.25 3.347-18.145.877-2.68 1.753-8.805 1.594-11.561 4.463 1.76 29.803-12.863 39.366-3.752z" fill="#7DEABD"/><path d="M79.13 64.542c-.877 3.369.319 7.427 1.354 10.566-4.303.536-9.403 1.837-13.387 3.139-4.303 1.378-8.766 3.598-13.149 4.44-2.948.536-7.41.23-10.28-.612l18.09-64.925c3.825.153 10.997 5.436 18.567 4.058-.478 2.833 0 9.187.797 12.097 1.673 6.201 3.825 11.943 2.789 18.451-.797 4.364-3.586 8.422-4.781 12.786z" fill="#5FB28C"/><path d="M55.303 21.897c-2.948.765-4.144 2.68-4.781 5.512.558 1.532 1.275 3.063 2.31 3.675.798-.23 1.754-.536 2.63-.995 2.79-1.225 5.579-2.68 8.447-4.058a35.376 35.376 0 01-2.789-2.22c-1.673-1.455-3.267-2.527-5.817-1.914zm-15.061 1.608c-1.434.383-2.63 1.225-3.586 2.297.319.153.638.306.956.535 3.746 1.991 7.332 4.058 11.157 4.594-.717-1.454-1.196-2.91-1.833-4.287-1.434-3.14-3.028-4.288-6.694-3.14z" fill="#FFF066"/><path d="M87.099 50.99c.557-5.053-.479-9.953-1.913-14.853-1.116-3.828-3.666-9.187-1.594-13.015.08-.153.24-.306.24-.536a1.793 1.793 0 000-1.684c-.24-.766-.957-1.302-1.993-1.226-4.542-.382-9.244-1.684-13.626-2.985-5.18-1.532-9.643-4.135-15.141-4.594-11.156-.919-21.197 6.814-32.353 6.89-.957 0-1.514.46-1.913 1.072-.398.536-.478 1.302 0 2.067 2.39 3.905-.797 9.8-2.072 13.705-1.514 4.67-2.63 9.417-1.992 14.317.478 3.905 1.913 7.427 3.586 10.949 2.072 4.594 2.71 8.345.558 13.092-.08.23-.16.536-.16.766-.159.918.24 1.99 1.515 2.373 5.578 1.684 11.395 3.292 16.734 5.513 5.02 2.067 9.005 3.751 14.742 3.215 4.702-.46 8.686-2.526 13.069-3.981 5.26-1.761 10.917-3.675 16.495-3.981.319.076.558 0 .877-.077 1.434-.23 1.992-1.531 1.753-2.68v-.076c0-.077-.08-.153-.08-.23 0-.076 0-.076-.08-.153-1.992-4.364-1.912-8.039-.159-12.403 1.594-3.828 3.108-7.427 3.507-11.484zM53.55 16.232c5.26.613 9.881 3.369 14.902 4.824 1.035.306 1.992.536 3.028.842-1.275.46-2.63 1.072-3.905 1.608-2.231-.23-3.984-2.527-5.658-3.752-1.673-1.225-3.426-2.067-5.578-1.914-3.347.153-5.977 1.684-7.65 3.981-.797-1.072-1.753-1.914-3.108-2.297-4.462-1.53-9.722.766-12.51 4.211-1.276-.612-2.55-1.225-3.826-1.76 2.311-.537 4.622-1.226 6.933-1.915 5.658-1.76 11.316-4.517 17.372-3.828zm-.478 13.935c-.956-.536-1.514-1.915-1.992-3.216.558-2.373 1.593-4.058 4.144-4.747 2.23-.612 3.506.383 5.18 1.684.796.613 1.593 1.302 2.39 1.915-2.47 1.224-4.94 2.45-7.331 3.521-.877.383-1.674.69-2.391.843zm-5.02.23c-3.507-.537-6.694-2.374-10.12-4.212-.32-.153-.559-.306-.877-.46.876-.918 1.992-1.683 3.267-2.066 3.347-.996 4.781 0 6.056 2.833.558 1.301 1.036 2.68 1.674 3.904zm34.584 21.13c-.717 4.518-3.108 8.422-4.303 12.786-.877 3.37-.558 6.585.478 9.724-4.224.536-8.447 1.76-12.511 3.062-4.303 1.379-8.606 3.675-12.989 4.518-3.347.612-7.092.612-10.28-.536-1.673-.613-3.187-1.608-4.86-2.297-4.702-1.838-9.643-3.369-14.504-4.824 1.195-3.522 1.514-7.043.24-10.718-1.435-4.288-3.905-8.04-4.623-12.557-1.035-6.278 1.275-12.097 3.188-17.992.877-2.68 1.753-5.512 1.594-8.269 4.462 1.685 8.765 3.905 12.83 6.202 5.179 2.833 10.12 5.206 16.176 3.981.239 0 .478-.076.717-.153 8.606-2.067 16.017-8.652 24.863-10.26-.478 2.833.239 5.82 1.035 8.652 1.754 6.202 3.985 12.174 2.949 18.681z" fill="#231F20"/><path d="M26.616 53.747c-.32 2.756 2.072 4.44 4.701 3.292 2.231-.995 3.427-3.522 4.224-5.589.318-.842.557-1.76.797-2.68-1.833-.689-3.825-.995-5.658-.153-2.152.919-3.825 2.986-4.064 5.13z" fill="#C9B53A"/><path d="M45.103 36.827c-2.869.306-5.658 1.837-6.933 4.364-.956 1.837-1.195 3.904-1.593 5.895-2.63-.919-5.42-.995-7.81.613-2.47 1.607-4.303 4.593-3.825 7.58.16 1.071.717 2.22 1.594 2.908 5.26 3.752 12.83 3.982 18.408.92 4.701-2.604 9.084-7.198 9.323-12.633.24-4.9-3.825-10.26-9.164-9.647zm-18.487 16.92c.239-2.22 1.912-4.211 3.984-5.13 1.833-.842 3.825-.536 5.658.153-.16.92-.399 1.838-.797 2.68-.797 2.067-1.992 4.594-4.223 5.59-2.55 1.148-4.941-.537-4.622-3.293zm22.71-.23c-4.303 4.9-11.554 7.274-17.77 5.283 2.949-.995 4.622-4.134 5.658-6.737.638-1.608 1.036-3.293 1.355-4.977.319-1.761.398-3.828 1.354-5.436 1.674-2.833 5.977-4.058 8.925-2.373 5.499 3.292 3.985 10.182.479 14.24z" fill="#231F20"/><path d="M49.327 53.517c3.586-4.058 5.02-10.948-.478-14.24-2.87-1.761-7.252-.46-8.925 2.373-.957 1.608-1.036 3.598-1.355 5.436-.319 1.684-.717 3.369-1.355 4.976-1.036 2.68-2.71 5.743-5.658 6.738 6.216 1.99 13.388-.383 17.77-5.283zm-8.686 3.445c-.08 0-.16.077-.24.077.08-.077.08-.153.16-.23 0 .077 0 .153.08.153z" fill="#FFF066"/><path d="M57.614 73.5c-2.789.306-4.622-1.99-3.347-4.517 1.036-2.144 3.666-3.292 5.817-4.058.877-.306 1.833-.536 2.79-.766.717 1.761 1.035 3.675.159 5.436-1.036 1.991-3.108 3.675-5.419 3.905z" fill="#C9B53A"/><path d="M65.344 46.856c-5.738.23-10.44 4.44-13.149 8.958-3.187 5.436-3.028 12.71.957 17.686.637.842 1.912 1.378 3.028 1.531 3.108.46 6.215-1.301 7.889-3.675 1.673-2.373 1.593-4.976.637-7.503 2.152-.306 4.224-.612 6.136-1.531 2.63-1.225 4.224-3.905 4.542-6.661.558-5.13-5.1-9.034-10.04-8.805zM54.267 68.983c1.036-2.144 3.666-3.292 5.817-4.058.877-.306 1.833-.536 2.79-.766.717 1.761 1.035 3.675.159 5.436-.956 1.991-3.108 3.599-5.34 3.829-2.868.306-4.7-1.915-3.426-4.441zm18.488-16.844c1.833 2.756.478 6.967-2.47 8.575-1.674.919-3.746.995-5.658 1.302-1.753.306-3.507.689-5.18 1.301-2.79.996-5.977 2.603-7.013 5.436-2.072-5.972.399-12.862 5.499-17.073 4.144-3.446 11.395-4.824 14.822.46z" fill="#231F20"/><path d="M52.434 68.753c1.036-2.833 4.303-4.44 7.013-5.436 1.673-.612 3.426-.995 5.18-1.301 1.832-.307 3.984-.383 5.657-1.302 2.949-1.608 4.224-5.742 2.47-8.575-3.426-5.36-10.678-3.905-14.821-.46-5.1 4.135-7.57 11.102-5.499 17.074zm1.992-8.651c-.08.076-.159.076-.239.153 0-.077.08-.153.08-.23.08 0 .08.077.16.077z" fill="#FFF066"/></svg>