<svg width="69" height="74" fill="none" xmlns="http://www.w3.org/2000/svg"><path d="M65.766 9.25L3.234 32.155l18.986 9.898 5.218 16.823 16.043-5.735L65.766 64.75V9.25z" fill="#FFE94F"/><path d="M65.766 9.25L22.22 42.053l5.218 16.823L65.766 9.25z" fill="#45D4D9"/><path d="M22.22 42.053l1.844 5.955L65.766 9.25 22.22 42.053z" fill="#2D95B5"/><path d="M65.766 9.25L27.438 58.876l16.043-5.735L65.766 9.25z" fill="#F74B50"/><path d="M66.844 9.17a.25.25 0 000-.082V9.03a.718.718 0 000-.162.208.208 0 00-.054-.08l-.119-.116-.14-.07h-.55L3.45 31.52c-.2.075-.376.211-.505.392a1.225 1.225 0 00-.078 1.277c.106.198.264.357.454.459l18.576 9.678 4.517 15.921a.546.546 0 010 .081c.03.066.066.128.108.185.037.066.08.128.13.185v.07l.129.08.075.07h.065a.91.91 0 00.248.07h.27c.067.005.136.005.204 0l15.762-5.643 21.886 11.412c.145.089.308.14.475.15.286 0 .56-.122.762-.338a1.2 1.2 0 00.316-.818V9.17zM42.737 52.181l-12.064 4.324L59.49 19.182l-16.754 33zm-19.245-9.678l36.322-27.357L27.848 56.54l-4.356-14.037zm35.46-29.542l-36.84 27.75L6.06 32.375l52.893-19.413zM44.936 52.62l19.752-38.827V62.9L44.936 52.621z" fill="#2C2A3D"/></svg>