<svg width="18" height="23" viewBox="0 0 18 23" fill="none" xmlns="http://www.w3.org/2000/svg">
<path fill-rule="evenodd" clip-rule="evenodd" d="M9.4844 22.2437C9.38302 22.2437 9.28164 22.2437 9.18026 22.2437C9.0149 22.1093 8.81328 22.0022 8.68969 21.8366C6.65042 19.1062 4.62027 16.3689 2.58963 13.632C1.19357 11.7503 0.615959 9.65089 0.926786 7.32001C1.14068 5.71598 1.77417 4.28924 2.81135 3.05348C4.03027 1.60105 5.5698 0.646959 7.42325 0.222477C7.85832 0.122832 8.30469 0.0725485 8.74584 -0.000488281C9.12243 -0.000488281 9.4989 -0.000488281 9.87544 -0.000488281C9.93137 0.0117839 9.9867 0.0303012 10.0433 0.0354053C11.2105 0.139938 12.3226 0.450221 13.3395 1.02849C15.8857 2.47641 17.3824 4.66131 17.7251 7.57377C17.9797 9.73728 17.4268 11.7255 16.1339 13.483C14.0939 16.2563 12.0349 19.0158 9.97693 21.7758C9.84345 21.9547 9.64997 22.0888 9.4844 22.2437ZM13.8762 8.48369C13.8865 5.97497 11.8517 3.92413 9.33418 3.9054C6.81982 3.88672 4.75519 5.93501 4.74503 8.45827C4.73488 10.9669 6.76953 13.0178 9.2871 13.0366C11.8015 13.0552 13.866 11.007 13.8762 8.48369Z" fill="#272243"/>
</svg>
