<svg width="18" height="18" viewBox="0 0 18 18" fill="none" xmlns="http://www.w3.org/2000/svg">
<path fill-rule="evenodd" clip-rule="evenodd" d="M13.9739 11.3923C13.5121 11.0789 12.9054 11.0805 12.4453 11.3963L11.7828 11.851C11.0449 12.3574 10.0636 12.3299 9.35433 11.7841C8.68587 11.2695 8.04785 10.7179 7.44196 10.1333C6.85732 9.52742 6.30572 8.88945 5.79121 8.22093C5.2453 7.51172 5.21785 6.53039 5.7243 5.79242L6.17899 5.12994C6.49474 4.66983 6.49637 4.06315 6.183 3.60135L4.28664 0.806697C3.76277 0.0347366 2.74311 -0.223899 1.91596 0.20763L1.91545 0.207856C0.244639 1.07959 -0.456349 3.09535 0.309185 4.81741C1.41109 7.29638 2.89064 9.56384 4.67623 11.5495L6.02572 12.899C8.01148 14.6846 10.2789 16.1642 12.7579 17.2661C14.48 18.0316 16.4957 17.3306 17.3674 15.6598L17.3676 15.6593C17.7992 14.8322 17.5406 13.8125 16.7686 13.2886L13.9739 11.3923V11.3923Z" fill="white"/>
</svg>
