<svg width="40" height="40" fill="none" xmlns="http://www.w3.org/2000/svg"><path d="M40 20c0 11.046-8.954 20-20 20S0 31.046 0 20 8.954 0 20 0s20 8.954 20 20z" fill="#4832DC"/><path d="M16.155 5.37s-6.275.08-6.193 5.693c.081 5.613 1.222 10.576 3.097 13.342 1.873 2.766 6.68 10.005 12.14 9.274 0 0 2.69-.57 4.726-1.872l-6.6-5.125s-1.955 1.22-3.178-.407c-1.222-1.626-5.052-9.192-5.052-9.192s-1.059-2.44 1.304-3.498l-.244-8.216z" fill="#fff"/><path d="M16.888 5.37s.49-.163 1.385.325c.896.488.896.894.896.894l.082 5.613s-.245.326-.57.65c-.326.326-1.386.815-1.549.489-.162-.325-.244-7.972-.244-7.972zm6.986 20.712l1.814-.946s.408-.08 1.06.326c.651.407 4.074 3.092 4.074 3.092s.57.488.407 1.057c-.163.57-.57 1.79-.57 1.79l-6.785-5.319z" fill="#fff"/></svg>