<svg width="40" height="40" viewBox="0 0 40 40" fill="none" xmlns="http://www.w3.org/2000/svg">
<path fill-rule="evenodd" clip-rule="evenodd" d="M20 40C31.0457 40 40 31.0457 40 20C40 8.95431 31.0457 0 20 0C8.95431 0 0 8.95431 0 20C0 31.0457 8.95431 40 20 40Z" fill="#C62D2D" fill-opacity="0.91"/>
<path fill-rule="evenodd" clip-rule="evenodd" d="M18.6415 18.2452C19.2946 17.59 19.3517 16.6809 19.3517 16.1688C19.3517 14.1227 18.1294 10.9381 15.7695 10.9381C15.0303 10.9381 14.2344 11.308 13.779 11.8772C13.2959 12.4742 13.1533 13.2409 13.1533 13.9803C13.1533 15.8846 14.2622 19.0411 16.7072 19.0411C17.418 19.0409 18.1857 18.6995 18.6415 18.2452ZM17.8162 23.6463C17.5888 23.6173 17.4465 23.6173 17.1628 23.6173C16.9067 23.6173 15.3712 23.6744 14.1773 24.0729C13.552 24.3004 11.7325 24.982 11.7325 27.0008C11.7325 29.0192 13.694 30.4685 16.7361 30.4685C19.4656 30.4685 20.9151 29.1614 20.9151 27.399C20.9151 25.9486 19.9773 25.1817 17.8162 23.6463ZM26.1539 20.7692H23.0769V19.2308H26.1539V16.1538H27.6923V19.2308H30.7692V20.7692H27.6923V23.8462H26.1539V20.7692ZM19.835 11.0232C20.4885 11.5636 21.8534 12.7004 21.8534 14.8617C21.8534 16.9655 20.6593 17.9606 19.4656 18.8982C19.0961 19.2679 18.6691 19.6662 18.6691 20.2917C18.6691 20.9173 19.0961 21.2586 19.408 21.514L20.432 22.3095C21.6833 23.3612 22.8199 24.3285 22.8199 26.2906C22.8199 28.9623 20.2327 31.6635 15.3427 31.6635C11.221 31.6635 9.23077 29.7021 9.23077 27.5978C9.23077 26.5742 9.74267 25.1246 11.4206 24.1292C13.1827 23.0487 15.5714 22.9077 16.85 22.8216C16.4519 22.3095 15.9972 21.7688 15.9972 20.8885C15.9972 20.4051 16.1394 20.1203 16.2816 19.7794C15.9682 19.8076 15.6563 19.8367 15.3714 19.8367C12.3584 19.8367 10.6526 17.5898 10.6526 15.3729C10.6526 14.0658 11.2494 12.6149 12.4719 11.5632C14.0926 10.2275 16.0255 10 17.5606 10H23.4169L21.5974 11.0227H19.835V11.0232Z" fill="white"/>
</svg>
