<svg width="40" height="40" viewBox="0 0 40 40" fill="none" xmlns="http://www.w3.org/2000/svg">
<path d="M20 0C31.044 0 40 8.956 40 20C40 31.044 31.044 40 20 40C8.956 40 0 31.044 0 20C0 8.956 8.956 0 20 0Z" fill="#1DA1F2"/>
<path d="M15.36 30.16C24.792 30.16 29.956 22.344 29.956 15.564C29.956 15.344 29.956 15.12 29.94 14.9C30.944 14.172 31.812 13.276 32.5 12.244C31.564 12.66 30.572 12.932 29.556 13.052C30.628 12.412 31.428 11.404 31.812 10.216C30.804 10.812 29.704 11.236 28.556 11.46C26.612 9.39601 23.364 9.29601 21.3 11.236C19.968 12.488 19.404 14.356 19.816 16.136C15.692 15.928 11.848 13.98 9.244 10.776C7.884 13.12 8.57599 16.116 10.832 17.624C10.016 17.6 9.216 17.38 8.504 16.984C8.504 17.004 8.504 17.028 8.504 17.048C8.504 19.488 10.224 21.592 12.62 22.076C11.864 22.28 11.072 22.312 10.304 22.164C10.976 24.252 12.9 25.684 15.096 25.728C13.28 27.156 11.036 27.932 8.728 27.928C8.32 27.928 7.912 27.904 7.508 27.852C9.84399 29.36 12.576 30.16 15.36 30.156" fill="white"/>
</svg>
