<svg width="102" height="88" viewBox="0 0 102 88" fill="none" xmlns="http://www.w3.org/2000/svg">
<path d="M90.4839 63.8711H57.5806V86.5808H90.4839V63.8711Z" fill="#D3A06C"/>
<path d="M41.129 63.871C42.9462 63.871 44.4194 62.6001 44.4194 61.0323C44.4194 59.4645 42.9462 58.1936 41.129 58.1936C39.3118 58.1936 37.8387 59.4645 37.8387 61.0323C37.8387 62.6001 39.3118 63.871 41.129 63.871Z" fill="#FF826E"/>
<path d="M27.9677 63.871C29.7849 63.871 31.2581 62.6001 31.2581 61.0323C31.2581 59.4645 29.7849 58.1936 27.9677 58.1936C26.1505 58.1936 24.6774 59.4645 24.6774 61.0323C24.6774 62.6001 26.1505 63.871 27.9677 63.871Z" fill="#FF826E"/>
<path d="M14.8065 63.871C16.6236 63.871 18.0968 62.6001 18.0968 61.0323C18.0968 59.4645 16.6236 58.1936 14.8065 58.1936C12.9893 58.1936 11.5161 59.4645 11.5161 61.0323C11.5161 62.6001 12.9893 63.871 14.8065 63.871Z" fill="#FF826E"/>
<path d="M77.3061 7.09685H67.649C65.6584 7.09685 63.7993 7.67879 62.3022 8.68653C60.8216 9.68008 59.7193 11.0994 59.2258 12.7743C54.6852 12.7743 51 15.9536 51 19.871V22.6672C51 24.6401 51.4606 26.5562 52.3326 28.3162C51.51 29.0685 51 30.1046 51 31.2401C51 32.4181 51.5593 33.4685 52.4477 34.2349C53.3361 35.0014 54.5535 35.484 55.919 35.484H55.9355H57.6464H57.6629C57.9097 37.982 58.8968 40.3381 60.4432 42.3678C60.8874 42.9356 61.3645 43.4891 61.891 44.0001H31.2581V49.8904C31.2581 51.3381 29.8926 52.5162 28.2145 52.5162C27.0464 52.5162 25.9935 51.9485 25.4835 51.0685L21.3871 44.0001H12.1248C8.96612 44.0001 6.30096 41.9562 5.93903 39.2452L1.67806 7.40911C1.66161 7.19621 1.64516 6.9975 1.64516 6.7846C1.64516 3.81814 4.42548 1.41943 7.86387 1.41943H71.1039C72.8148 1.41943 74.3777 2.01556 75.4964 2.99492C76.6316 3.96008 77.3226 5.30847 77.3226 6.7846C77.3226 6.89814 77.3226 6.9975 77.3061 7.09685Z" fill="#E6E9ED"/>
<path d="M37.8387 15.613H14.8064V26.9679H37.8387V15.613Z" fill="#F0D0B4"/>
<path d="M31.2581 21.2903H21.3871V26.9677H31.2581V21.2903Z" fill="#AAB2BD"/>
<path d="M41.129 15.6131H37.8387H14.8065H11.5161L26.3226 7.09692L41.129 15.6131Z" fill="#FF826E"/>
<path d="M73.111 22.7098C73.1932 23.5331 73.1439 24.3563 72.8971 25.1795L72.3871 26.9679L71.1368 25.8892C68.7184 23.8027 65.7571 22.2272 62.5161 21.2905C59.6535 22.1137 57.6958 24.3847 57.5806 26.9679H55.9355C54.5206 26.9679 53.2374 27.4789 52.3326 28.3163C51.4606 26.5563 51 24.6402 51 22.6672V19.8711C51 15.9537 54.6852 12.7743 59.2258 12.7743C59.7194 11.0995 60.8216 9.68015 62.3023 8.6866C63.7994 7.67886 65.6584 7.09692 67.649 7.09692H77.3061H79.5764C89.2335 7.09692 97.0645 13.8531 97.0645 22.1847C97.0645 24.2711 96.5545 26.3292 95.6168 28.2169C94.7284 27.4505 93.4945 26.9679 92.129 26.9679H90.4839L90.0726 26.755C84.9561 24.115 79.1158 22.7098 73.1439 22.7098H73.111Z" fill="#656D78"/>
<path d="M52.6452 70.9677C52.0694 70.9677 51.51 71.0529 51 71.2232V71.209V68.129C51 62.1677 55.3268 56.831 61.8252 54.8013L69.0968 52.5161L74.0323 61.0322L78.9677 52.5161L86.2394 54.8013C92.7377 56.831 97.0645 62.1677 97.0645 68.129V71.209V71.2232C96.5545 71.0529 95.9952 70.9677 95.4194 70.9677H93.7742C91.9645 70.9677 90.4839 72.2451 90.4839 73.8064V63.8709H70.7419H64.1613H57.5806V73.8064C57.5806 72.2451 56.1 70.9677 54.2903 70.9677H52.6452Z" fill="#5CD6B3"/>
<path d="M70.7419 63.8711H64.1613V75.2259H70.7419V63.8711Z" fill="#B27946"/>
<path d="M47.7097 78.0645V75.2258C47.7097 73.3665 49.0752 71.791 51 71.2233C51.51 71.0529 52.0693 70.9678 52.6452 70.9678H54.2903C56.1 70.9678 57.5806 72.2452 57.5806 73.8065V76.6452V79.4839C57.5806 81.0452 56.1 82.3226 54.2903 82.3226H52.6452C49.9142 82.3226 47.7097 80.4207 47.7097 78.0645Z" fill="#F0D0B4"/>
<path d="M100.355 75.2258V78.0645C100.355 80.4207 98.1503 82.3226 95.4193 82.3226H93.7742C91.9645 82.3226 90.4839 81.0452 90.4839 79.4839V76.6452V73.8065C90.4839 72.2452 91.9645 70.9678 93.7742 70.9678H95.4193C95.9951 70.9678 96.5545 71.0529 97.0645 71.2233C98.9893 71.791 100.355 73.3665 100.355 75.2258Z" fill="#F0D0B4"/>
<path d="M97.0645 31.24C97.0645 33.582 94.86 35.4839 92.1619 35.4839H92.129H90.4181H90.4016C90.4674 35.0297 90.4839 34.5755 90.4839 34.1213V26.9678H92.129C93.4945 26.9678 94.7284 27.4504 95.6168 28.2168C96.5052 28.9833 97.0645 30.062 97.0645 31.24Z" fill="#F0D0B4"/>
<path d="M90.4839 26.9677V34.1213C90.4839 34.5754 90.4674 35.0296 90.4016 35.4838C89.8422 40.92 85.861 45.7174 79.9713 47.889C79.3626 48.1161 78.9677 48.6271 78.9677 49.1948V52.5161L74.0323 61.0322L69.0968 52.5161V49.1948C69.0968 48.6271 68.7019 48.1161 68.0932 47.889C65.6584 46.9948 63.5526 45.6464 61.891 44C61.3645 43.489 60.8874 42.9354 60.4432 42.3677C58.8968 40.338 57.9097 37.9819 57.6629 35.4838C57.5971 35.0296 57.5806 34.5754 57.5806 34.1213V27.1948C57.5806 27.1238 57.5806 27.0387 57.5806 26.9677C57.6958 24.3845 59.6535 22.1135 62.5161 21.2903C65.7571 22.2271 68.7184 23.8025 71.1368 25.889L72.3871 26.9677L72.8971 25.1793C73.1439 24.3561 73.1932 23.5329 73.111 22.7096H73.1439C79.1158 22.7096 84.9561 24.1148 90.0726 26.7548L90.4839 26.9677Z" fill="#F0D0B4"/>
<path d="M57.5806 34.1213C57.5806 34.5755 57.5971 35.0297 57.6629 35.4839H57.6465H55.9355H55.919C54.5536 35.4839 53.3361 35.0013 52.4477 34.2349C51.5594 33.4684 51 32.4181 51 31.24C51 30.1045 51.51 29.0684 52.3326 28.3162C53.2374 27.4787 54.5206 26.9678 55.9355 26.9678H57.5806C57.5806 27.0387 57.5806 27.1239 57.5806 27.1949V34.1213Z" fill="#F0D0B4"/>
<path d="M82.2597 31.2259C83.1683 31.2259 83.9049 30.5904 83.9049 29.8066C83.9049 29.0227 83.1683 28.3872 82.2597 28.3872C81.3511 28.3872 80.6145 29.0227 80.6145 29.8066C80.6145 30.5904 81.3511 31.2259 82.2597 31.2259Z" fill="black"/>
<path d="M65.8081 31.2259C66.7167 31.2259 67.4532 30.5904 67.4532 29.8066C67.4532 29.0227 66.7167 28.3872 65.8081 28.3872C64.8995 28.3872 64.1629 29.0227 64.1629 29.8066C64.1629 30.5904 64.8995 31.2259 65.8081 31.2259Z" fill="black"/>
<path d="M98.7097 70.3375V68.1347C98.7097 61.5943 93.9223 55.6969 86.7971 53.4614L80.6162 51.5226L80.6178 49.1934C86.6112 46.9778 90.7751 42.3181 91.8494 36.9032H92.1554C95.7698 36.9032 98.7113 34.3654 98.7113 31.2471C98.7113 30.0165 98.2474 28.8824 97.4774 27.9499C98.2786 26.1019 98.7097 24.1702 98.7097 22.1845C98.7097 13.0822 90.1269 5.67742 79.5764 5.67742H78.8378C78.2192 2.464 74.998 0 71.1006 0H7.86716C3.53052 0 0 3.04594 0 6.78735C0 7.04852 0.0180968 7.30826 0.0526452 7.56516L4.31032 39.4112C4.76932 42.8361 8.12874 45.4194 12.1265 45.4194H20.3704L24.0078 51.6957C24.809 53.0782 26.418 53.9355 28.2079 53.9355C30.7974 53.9355 32.9032 52.1187 32.9032 49.8846V45.4194H61.172C62.9143 46.9991 65.0283 48.2992 67.4483 49.1934L67.45 51.5226L61.2691 53.4614C54.1439 55.6969 49.3565 61.5929 49.3565 68.1347V70.3375C47.3987 71.3212 46.0645 73.1323 46.0645 75.2258V78.0645C46.0645 81.1956 49.0159 83.7419 52.6452 83.7419H54.2903C54.8694 83.7419 55.4189 83.6397 55.9355 83.4808V88H92.129V83.4808C92.6456 83.6397 93.1951 83.7419 93.7742 83.7419H95.4194C99.0486 83.7419 102 81.1956 102 78.0645V75.2258C102 73.1337 100.667 71.3226 98.7097 70.3375ZM85.6718 56.1284C91.5022 57.9579 95.4194 62.7823 95.4194 68.1347V69.5484H93.7742C93.1951 69.5484 92.6456 69.6506 92.129 69.8095V62.4516H75.049L79.7854 54.2818L85.6718 56.1284ZM92.1323 34.0645L92.129 28.3871C93.9436 28.3871 95.421 29.6688 95.421 31.2471C95.421 32.7999 93.9568 34.0631 92.1323 34.0645ZM95.4194 22.1845C95.4194 23.5003 95.1907 24.7862 94.7646 26.0324C93.9568 25.7258 93.0668 25.5484 92.129 25.5484H91.9974C91.1946 20.7425 86.4022 17.0323 80.6129 17.0323V19.871C84.048 19.871 86.9978 21.6963 88.2267 24.2809C83.9328 22.4826 79.2425 21.4791 74.46 21.3215C74.0224 19.8766 73.1587 18.5297 71.9051 17.4467L69.5788 19.4537C71.0183 20.697 71.7027 22.4613 71.451 24.1858C69.0244 22.2924 66.1388 20.8347 63.0376 19.9419L62.5161 19.7943L61.9963 19.9434C58.9938 20.8063 56.8321 22.9623 56.1691 25.547H55.9388C54.955 25.547 54.0304 25.7471 53.1914 26.0835C52.8393 24.9764 52.6452 23.8366 52.6452 22.6742V19.871C52.6452 16.7399 55.5966 14.1935 59.2258 14.1935H60.509L60.82 13.1177C61.6064 10.4081 64.4163 8.51613 67.654 8.51613H79.5764C88.3123 8.51613 95.4194 14.6477 95.4194 22.1845ZM55.9125 34.0645C54.111 34.0645 52.6468 32.7999 52.6468 31.2471C52.6468 29.6702 54.1209 28.3899 55.9355 28.3885L55.9338 34.0659H55.9125V34.0645ZM29.6129 42.5806V49.8846C29.6129 50.5517 28.9812 51.0968 28.2079 51.0968C27.6733 51.0968 27.1912 50.8399 26.951 50.4254L22.4038 42.5806H12.1265C9.80187 42.5806 7.84577 41.0761 7.57761 39.0848L3.32158 7.24013C3.30184 7.08968 3.29032 6.94065 3.29032 6.78735C3.29032 4.61006 5.34348 2.83871 7.86716 2.83871H71.1006C73.1751 2.83871 74.9108 4.04232 75.4701 5.67742H67.654C63.3173 5.67742 59.5038 7.99239 57.9969 11.4201C53.1321 11.9439 49.3548 15.5334 49.3548 19.871V22.6742C49.3548 24.5293 49.748 26.3361 50.4785 28.0692C49.7711 28.9775 49.3565 30.0704 49.3565 31.2471C49.3565 34.3654 52.298 36.9032 55.9371 36.9032H56.2168C56.6199 38.9329 57.4573 40.8533 58.6632 42.5806H29.6129ZM59.2242 34.1255L59.2258 27.1977C59.2258 25.2787 60.5386 23.5655 62.5424 22.8005C65.3195 23.6763 67.8761 25.0814 69.9687 26.8868L73.2788 29.7426L74.5028 25.5285C74.6327 25.0814 74.7018 24.6286 74.7446 24.1759C79.7031 24.3959 84.535 25.6307 88.8404 27.7867L88.8436 34.1227C88.8469 39.5532 85.1091 44.4443 79.3264 46.5832C78.1139 47.0303 77.3292 48.0537 77.3292 49.1906L77.3259 52.1812L74.0323 57.86L70.7419 52.1812L70.7386 49.192C70.7386 48.0537 69.9539 47.0317 68.7431 46.5846C62.9603 44.4457 59.2225 39.556 59.2242 34.1255ZM62.3944 56.1284L68.2808 54.2818L73.0155 62.4516H55.9355V69.8095C55.4189 69.6506 54.8694 69.5484 54.2903 69.5484H52.6468V68.1347C52.6468 62.7823 56.5639 57.9579 62.3944 56.1284ZM65.8065 65.2903H69.0968V73.8064H65.8065V65.2903ZM54.2903 80.9032H52.6452C50.8305 80.9032 49.3548 79.6301 49.3548 78.0645V75.2258C49.3548 73.6603 50.8305 72.3871 52.6452 72.3871H54.2903C55.1985 72.3871 55.9355 73.023 55.9355 73.8064V75.2258H52.6452V78.0645H55.9355V79.4839C55.9355 80.2674 55.1985 80.9032 54.2903 80.9032ZM88.8387 85.1613H59.2258V79.4839V73.8064V65.2903H62.5161V76.6452H72.3871V65.2903H88.8387V73.8064V79.4839V85.1613ZM98.7097 78.0645C98.7097 79.6301 97.234 80.9032 95.4194 80.9032H93.7742C92.8661 80.9032 92.129 80.2674 92.129 79.4839V78.0645H95.4194V75.2258H92.129V73.8064C92.129 73.023 92.8661 72.3871 93.7742 72.3871H95.4194C97.234 72.3871 98.7097 73.6603 98.7097 75.2258V78.0645Z" fill="black"/>
<path d="M85.5484 68.1289H75.6774V70.9676H85.5484V68.1289Z" fill="black"/>
<path d="M85.5484 73.8064H75.6774V76.6451H85.5484V73.8064Z" fill="black"/>
<path d="M74.0323 45.4193C76.6892 45.4193 79.078 44.1462 80.2658 42.0952L80.4385 41.7957L77.4953 40.5254L77.3226 40.8263C76.6958 41.9078 75.4356 42.5806 74.0323 42.5806C72.6289 42.5806 71.3687 41.9078 70.7419 40.8263L70.5692 40.5268L67.626 41.7971L67.7987 42.0966C68.9866 44.1462 71.3753 45.4193 74.0323 45.4193Z" fill="black"/>
<path d="M73.1225 39.5929L74.9404 38.808C75.7268 38.4688 76.3124 37.8869 76.5905 37.1673C76.8685 36.4476 76.806 35.6769 76.4128 34.9999L75.6774 33.7296V31.2258H72.3871V34.0645C72.3871 34.2845 72.4463 34.5031 72.5598 34.699L73.4696 36.2674L71.6517 37.0523L73.1225 39.5929Z" fill="black"/>
<path d="M26.3226 5.39062L6.08217 17.0322H13.1613V28.387H39.4839V17.0322H46.563L26.3226 5.39062ZM26.3226 8.80275L35.6951 14.1935H16.9501L26.3226 8.80275ZM29.6129 25.5483H23.0323V22.7096H29.6129V25.5483ZM36.1936 25.5483H32.9032V19.8709H19.7419V25.5483H16.4516V17.0322H36.1936V25.5483Z" fill="black"/>
<path d="M16.4516 31.2258H13.1613V34.0645H16.4516V31.2258Z" fill="black"/>
<path d="M16.4516 36.9033H13.1613V39.742H16.4516V36.9033Z" fill="black"/>
<path d="M39.4839 31.2258H19.7419V34.0645H39.4839V31.2258Z" fill="black"/>
<path d="M39.4839 36.9033H19.7419V39.742H39.4839V36.9033Z" fill="black"/>
<path d="M27.9677 56.7742C25.2466 56.7742 23.0323 58.6846 23.0323 61.0322C23.0323 63.3798 25.2466 65.2903 27.9677 65.2903C30.6888 65.2903 32.9032 63.3798 32.9032 61.0322C32.9032 58.6846 30.6888 56.7742 27.9677 56.7742ZM27.9677 62.4516C27.0596 62.4516 26.3226 61.8157 26.3226 61.0322C26.3226 60.2488 27.0596 59.6129 27.9677 59.6129C28.8759 59.6129 29.6129 60.2488 29.6129 61.0322C29.6129 61.8157 28.8759 62.4516 27.9677 62.4516Z" fill="black"/>
<path d="M41.129 56.7742C38.4079 56.7742 36.1935 58.6846 36.1935 61.0322C36.1935 63.3798 38.4079 65.2903 41.129 65.2903C43.8501 65.2903 46.0645 63.3798 46.0645 61.0322C46.0645 58.6846 43.8501 56.7742 41.129 56.7742ZM41.129 62.4516C40.2209 62.4516 39.4839 61.8157 39.4839 61.0322C39.4839 60.2488 40.2209 59.6129 41.129 59.6129C42.0372 59.6129 42.7742 60.2488 42.7742 61.0322C42.7742 61.8157 42.0372 62.4516 41.129 62.4516Z" fill="black"/>
<path d="M14.8065 56.7742C12.0854 56.7742 9.87097 58.6846 9.87097 61.0322C9.87097 63.3798 12.0854 65.2903 14.8065 65.2903C17.5276 65.2903 19.7419 63.3798 19.7419 61.0322C19.7419 58.6846 17.5276 56.7742 14.8065 56.7742ZM14.8065 62.4516C13.8983 62.4516 13.1613 61.8157 13.1613 61.0322C13.1613 60.2488 13.8983 59.6129 14.8065 59.6129C15.7146 59.6129 16.4516 60.2488 16.4516 61.0322C16.4516 61.8157 15.7146 62.4516 14.8065 62.4516Z" fill="black"/>
</svg>
