<svg width="102" height="88" viewBox="0 0 102 88" fill="none" xmlns="http://www.w3.org/2000/svg">
<path d="M15.9375 33H22.3125V27.5H15.9375V33ZM41.4375 27.5H47.8125V22H41.4375V27.5ZM54.1875 27.5H60.5625V22H54.1875V27.5ZM66.9375 27.5H73.3125V22H66.9375V27.5ZM41.4375 16.5H47.8125V11H41.4375V16.5ZM54.1875 16.5H60.5625V11H54.1875V16.5ZM66.9375 16.5H73.3125V11H66.9375V16.5ZM41.4375 49.5H47.8125V44H41.4375V49.5ZM54.1875 49.5H60.5625V44H54.1875V49.5ZM66.9375 49.5H73.3125V44H66.9375V49.5ZM41.4375 60.5H47.8125V55H41.4375V60.5ZM66.9375 60.5H73.3125V55H66.9375V60.5ZM41.4375 71.5H47.8125V66H41.4375V71.5ZM66.9375 71.5H73.3125V66H66.9375V71.5ZM86.0625 66H92.4375V60.5H86.0625V66ZM86.0625 49.5V55H92.4375V49.5H86.0625ZM86.0625 77H92.4375V71.5H86.0625V77ZM41.4375 38.5H47.8125V33H41.4375V38.5ZM54.1875 38.5H60.5625V33H54.1875V38.5ZM66.9375 38.5H73.3125V33H66.9375V38.5ZM15.9375 44H22.3125V38.5H15.9375V44ZM15.9375 55H22.3125V49.5H15.9375V55ZM15.9375 66H22.3125V60.5H15.9375V66ZM15.9375 77H22.3125V71.5H15.9375V77ZM54.1875 60.5H60.5625V55H54.1875V60.5Z" fill="#B0BEC5"/>
<path fill-rule="evenodd" clip-rule="evenodd" d="M98.8125 82.5C98.8125 85.5401 95.9613 88 92.4375 88H9.5625C6.03872 88 3.1875 85.5401 3.1875 82.5V22C3.1875 18.9599 6.03872 16.5 9.5625 16.5H28.6875V5.5C28.6875 2.45988 31.5387 0 35.0625 0H79.6875C83.2113 0 86.0625 2.45988 86.0625 5.5V38.5H92.4375C95.9613 38.5 98.8125 40.9599 98.8125 44V82.5ZM28.6875 22H9.5625V82.5H28.6875V22ZM79.6875 5.5H35.0625V82.5H54.1875V66H60.5625V82.5H79.6875V5.5ZM92.4375 44H86.0625V82.5H92.4375V44Z" fill="#546E7A"/>
</svg>
