<svg width="102" height="90" viewBox="0 0 102 90" fill="none" xmlns="http://www.w3.org/2000/svg">
<path fill-rule="evenodd" clip-rule="evenodd" d="M38.25 90H63.75V61.875H38.25V90ZM44.625 78.75H51V73.125H44.625V67.5H57.375V84.375H44.625V78.75ZM44.625 39.375H25.5V56.25H44.625V39.375ZM38.25 50.625H31.875V45H38.25V50.625ZM57.375 39.375V56.25H76.5V39.375H57.375ZM70.125 50.625H63.75V45H70.125V50.625Z" fill="#B0BEC5"/>
<path fill-rule="evenodd" clip-rule="evenodd" d="M101.237 43.2035C99.4102 47.6585 94.6162 50.625 89.2501 50.625V78.75C89.2501 84.9628 83.5413 90 76.5001 90H70.1251V84.375H76.5001C80.0143 84.375 82.8751 81.8508 82.8751 78.75V50.625V45H89.2501C91.9236 45 94.3333 43.5087 95.2426 41.2896C96.155 39.0705 95.386 36.5625 93.3317 35.0522L55.0817 6.92719C53.9389 6.08625 52.491 5.625 51.0001 5.625C49.5091 5.625 48.0612 6.08625 46.9225 6.92719L41.2631 11.0855L34.7327 15.8864L31.3396 9.01195C30.322 6.95461 28.0309 5.625 25.5001 5.625C21.9827 5.625 19.1251 8.14922 19.1251 11.25V24.7303V27.3642L16.8309 29.0503L8.66927 35.0515C6.61493 36.5625 5.84595 39.0698 6.75757 41.2896C7.6668 43.5087 10.0766 45 12.7501 45H19.1251V50.625V78.75C19.1251 81.8508 21.9827 84.375 25.5001 84.375H31.8751V90H25.5001C18.4589 90 12.7501 84.9628 12.7501 78.75V50.625C7.38391 50.625 2.58992 47.6585 0.762681 43.2035C-1.06455 38.7513 0.463853 33.7634 4.58848 30.7315L12.7501 24.7303V11.25C12.7501 5.03719 18.4589 0 25.5001 0C30.7324 0 35.218 2.78789 37.1823 6.76477L42.8385 2.60648C45.2012 0.867656 48.1018 0 51.0001 0C53.8983 0 56.7989 0.867656 59.1617 2.60648L97.4117 30.7315C101.536 33.7641 103.065 38.7513 101.237 43.2035Z" fill="#546E7A"/>
</svg>
