<svg width="103" height="93" viewBox="0 0 103 93" fill="none" xmlns="http://www.w3.org/2000/svg">
<g clip-path="url(#clip0_1207_689)">
<path d="M101.702 31.3759L95.8841 20.6504C94.7929 18.6806 92.564 17.4375 90.1249 17.4375H51.8484L51.1692 15.5986C50.2929 13.2263 47.8346 11.625 45.0624 11.625H6.43744C4.5078 11.625 2.68116 12.4053 1.45804 13.7538C0.234911 15.0994 -0.255144 16.8701 0.125473 18.5789L13.0005 76.7039C13.6008 79.4198 16.245 81.375 19.3124 81.375H83.6874C86.5602 81.375 89.0877 79.6552 89.8763 77.1602L102.751 36.4727C103.308 34.7195 102.918 32.8305 101.702 31.3759ZM90.1249 23.25L93.3437 29.0625H56.1398L53.9961 23.25H90.1249ZM83.6874 75.5625H19.3124L6.43744 17.4375H45.0624L51.4999 34.875H96.5624L83.6874 75.5625Z" fill="#FFA000"/>
</g>
<defs>
<clipPath id="clip0_1207_689">
<rect width="103" height="93" fill="white"/>
</clipPath>
</defs>
</svg>
