<svg width="102" height="98" viewBox="0 0 102 98" fill="none" xmlns="http://www.w3.org/2000/svg">
<path d="M62.0766 17.4563L44.2266 82.4579C43.8281 82.3813 39.6844 80.3142 38.011 79.6251C33.3094 77.7876 27.2531 76.1798 22.3922 74.7251C23.5875 71.2032 23.8266 67.2985 22.5516 63.547C21.1172 59.336 18.4875 55.4313 17.7703 50.9142C16.7344 44.636 19.2047 38.6642 21.1172 32.7688C21.9938 30.0892 22.8703 23.9642 22.711 21.2079C27.1735 22.9688 52.5141 8.3454 62.0766 17.4563Z" fill="#7DEABD"/>
<path d="M79.1297 64.5421C78.2531 67.9108 79.4485 71.9687 80.4844 75.1077C76.1813 75.6436 71.0813 76.9452 67.0969 78.2468C62.7938 79.6249 58.3313 81.8452 53.9484 82.6874C51 83.2233 46.5375 82.9171 43.6688 82.0749L61.7578 17.1499C65.5828 17.303 72.7547 22.5858 80.325 21.2077C79.8469 24.0405 80.325 30.3952 81.1219 33.3046C82.7953 39.5062 84.9469 45.2483 83.911 51.7562C83.1141 56.1202 80.325 60.178 79.1297 64.5421Z" fill="#5FB28C"/>
<path d="M55.3031 21.8968C52.3547 22.6624 51.1594 24.5765 50.5219 27.4093C51.0797 28.9405 51.7969 30.4718 52.8328 31.0843C53.6297 30.8546 54.5859 30.5483 55.4625 30.089C58.2515 28.864 61.0406 27.4093 63.9093 26.0312C62.9531 25.3421 62.0765 24.653 61.1203 23.8108C59.4468 22.3562 57.8531 21.2843 55.3031 21.8968Z" fill="#FFF066"/>
<path d="M40.2422 23.5047C38.8078 23.8875 37.6125 24.7297 36.6562 25.8015C36.975 25.9547 37.2938 26.1078 37.6125 26.3375C41.3578 28.3281 44.9437 30.3953 48.7687 30.9312C48.0516 29.4765 47.5734 28.0219 46.9359 26.6437C45.5016 23.5047 43.9078 22.3562 40.2422 23.5047Z" fill="#FFF066"/>
<path d="M87.0985 50.9906C87.6563 45.9374 86.6203 41.0374 85.186 36.1374C84.0703 32.3093 81.5203 26.9499 83.5922 23.1218C83.6719 22.9687 83.8313 22.8156 83.8313 22.5859C84.15 21.9734 84.0703 21.3609 83.8313 20.9015C83.5922 20.1359 82.875 19.5999 81.8391 19.6765C77.2969 19.2937 72.5953 17.9921 68.2125 16.6906C63.0328 15.1593 58.5703 12.5562 53.0719 12.0968C41.9156 11.1781 31.875 18.9109 20.7188 18.9874C19.7625 18.9874 19.2047 19.4468 18.8063 20.0593C18.4078 20.5953 18.3282 21.3609 18.8063 22.1265C21.1969 26.0312 18.0094 31.9265 16.7344 35.8312C15.2203 40.5015 14.1047 45.2484 14.7422 50.1484C15.2203 54.0531 16.6547 57.5749 18.3282 61.0968C20.4 65.6906 21.0375 69.4421 18.886 74.189C18.8063 74.4187 18.7266 74.7249 18.7266 74.9546C18.5672 75.8734 18.9656 76.9452 20.2406 77.3281C25.8188 79.0124 31.636 80.6202 36.975 82.8405C41.9953 84.9077 45.9797 86.5921 51.7172 86.0562C56.4188 85.5968 60.4031 83.5296 64.786 82.0749C70.0453 80.314 75.7031 78.3999 81.2813 78.0937C81.6 78.1702 81.8391 78.0937 82.1578 78.0171C83.5922 77.7874 84.15 76.4859 83.911 75.3374V75.2609C83.911 75.1843 83.8313 75.1077 83.8313 75.0312C83.8313 74.9546 83.8313 74.9546 83.7516 74.8781C81.7594 70.514 81.8391 66.839 83.5922 62.4749C85.186 58.6468 86.7 55.0484 87.0985 50.9906ZM53.55 16.2312C58.8094 16.8437 63.4313 19.5999 68.4516 21.0546C69.4875 21.3609 70.4438 21.5906 71.4797 21.8968C70.2047 22.3562 68.85 22.9687 67.575 23.5046C65.3438 23.2749 63.5906 20.9781 61.9172 19.7531C60.2438 18.5281 58.4906 17.6859 56.3391 17.839C52.9922 17.9921 50.3625 19.5234 48.6891 21.8203C47.8922 20.7484 46.936 19.9062 45.5813 19.5234C41.1188 17.9921 35.8594 20.289 33.0703 23.7343C31.7953 23.1218 30.5203 22.5093 29.2453 21.9734C31.5563 21.4374 33.8672 20.7484 36.1782 20.0593C41.836 18.2984 47.4938 15.5421 53.55 16.2312ZM53.0719 30.1656C52.1156 29.6296 51.5578 28.2515 51.0797 26.9499C51.6375 24.5765 52.6735 22.8921 55.2235 22.2031C57.4547 21.5906 58.7297 22.5859 60.4031 23.8874C61.2 24.4999 61.9969 25.189 62.7938 25.8015C60.3235 27.0265 57.8531 28.2515 55.4625 29.3234C54.586 29.7062 53.7891 30.0124 53.0719 30.1656ZM48.0516 30.3953C44.5453 29.8593 41.3578 28.0218 37.9313 26.1843C37.6125 26.0312 37.3735 25.8781 37.0547 25.7249C37.9313 24.8062 39.0469 24.0406 40.3219 23.6578C43.6688 22.6624 45.1031 23.6578 46.3781 26.4906C46.936 27.7921 47.4141 29.1703 48.0516 30.3953ZM82.636 51.5265C81.9188 56.0437 79.5281 59.9484 78.3328 64.3124C77.4563 67.6812 77.775 70.8968 78.811 74.0359C74.5875 74.5718 70.3641 75.7968 66.3 77.0984C61.9969 78.4765 57.6938 80.7734 53.311 81.6156C49.9641 82.2281 46.2188 82.2281 43.0313 81.0796C41.3578 80.4671 39.8438 79.4718 38.1703 78.7827C33.4688 76.9452 28.5281 75.414 23.6672 73.9593C24.8625 70.4374 25.1813 66.9156 23.9063 63.2406C22.4719 58.9531 20.0016 55.2015 19.2844 50.6843C18.2485 44.4062 20.5594 38.5874 22.4719 32.6921C23.3485 30.0124 24.225 27.1796 24.0657 24.4234C28.5281 26.1078 32.8313 28.3281 36.8953 30.6249C42.075 33.4578 47.0156 35.8312 53.0719 34.6062C53.311 34.6062 53.55 34.5296 53.7891 34.4531C62.3953 32.3859 69.8063 25.8015 78.6516 24.1937C78.1735 27.0265 78.8906 30.0124 79.6875 32.8453C81.4406 39.0468 83.6719 45.0187 82.636 51.5265Z" fill="#231F20"/>
<path d="M26.6156 53.7469C26.2969 56.5031 28.6875 58.1875 31.3172 57.0391C33.5484 56.0438 34.7437 53.5172 35.5406 51.45C35.8594 50.6078 36.0984 49.6891 36.3375 48.7703C34.5047 48.0813 32.5125 47.775 30.6797 48.6172C28.5281 49.536 26.8547 51.6031 26.6156 53.7469Z" fill="#C9B53A"/>
<path d="M45.1031 36.8266C42.2344 37.1328 39.4453 38.6641 38.1703 41.1906C37.2141 43.0281 36.975 45.0953 36.5766 47.086C33.9469 46.1672 31.1578 46.0906 28.7672 47.6985C26.2969 49.3063 24.4641 52.2922 24.9422 55.2781C25.1016 56.35 25.6594 57.4985 26.5359 58.1875C31.7953 61.9391 39.3656 62.1688 44.9437 59.1063C49.6453 56.5031 54.0281 51.9094 54.2672 46.4735C54.5062 41.5735 50.4422 36.2141 45.1031 36.8266ZM26.6156 53.7469C26.8547 51.5266 28.5281 49.536 30.6 48.6172C32.4328 47.775 34.425 48.0813 36.2578 48.7703C36.0984 49.6891 35.8594 50.6078 35.4609 51.45C34.6641 53.5172 33.4687 56.0438 31.2375 57.0391C28.6875 58.1875 26.2969 56.5031 26.6156 53.7469ZM49.3266 53.5172C45.0234 58.4172 37.7719 60.7906 31.5562 58.8C34.5047 57.8047 36.1781 54.6656 37.2141 52.0625C37.8516 50.4547 38.25 48.7703 38.5687 47.086C38.8875 45.325 38.9672 43.2578 39.9234 41.65C41.5969 38.8172 45.9 37.5922 48.8484 39.2766C54.3469 42.5688 52.8328 49.4594 49.3266 53.5172Z" fill="#231F20"/>
<path d="M49.3266 53.5171C52.9125 49.4593 54.3469 42.5687 48.8485 39.2765C45.9797 37.5155 41.5969 38.8171 39.9235 41.6499C38.9672 43.2577 38.8875 45.2483 38.5688 47.0858C38.25 48.7702 37.8516 50.4546 37.2141 52.0624C36.1782 54.7421 34.5047 57.8046 31.5563 58.7999C37.7719 60.7905 44.9438 58.4171 49.3266 53.5171ZM40.6407 56.9624C40.561 56.9624 40.4813 57.039 40.4016 57.039C40.4813 56.9624 40.4813 56.8858 40.561 56.8093C40.561 56.8858 40.561 56.9624 40.6407 56.9624Z" fill="#FFF066"/>
<path d="M57.6141 73.5C54.825 73.8063 52.9922 71.5094 54.2672 68.9829C55.3031 66.8391 57.9328 65.6907 60.0844 64.925C60.9609 64.6188 61.9172 64.3891 62.8734 64.1594C63.5906 65.9204 63.9094 67.8344 63.0328 69.5954C61.9969 71.586 59.925 73.2704 57.6141 73.5Z" fill="#C9B53A"/>
<path d="M65.3438 46.8563C59.6063 47.086 54.9047 51.2969 52.1953 55.8141C49.0078 61.2501 49.1672 68.5235 53.1516 73.5001C53.7891 74.3422 55.0641 74.8782 56.1797 75.0313C59.2875 75.4907 62.3953 73.7297 64.0688 71.3563C65.7422 68.9829 65.6625 66.3797 64.7063 63.8532C66.8578 63.5469 68.9297 63.2407 70.8422 62.3219C73.4719 61.0969 75.0657 58.4172 75.3844 55.661C75.9422 50.5313 70.2844 46.6266 65.3438 46.8563ZM54.2672 68.9829C55.3032 66.8391 57.9328 65.6907 60.0844 64.9251C60.961 64.6188 61.9172 64.3891 62.8735 64.1594C63.5907 65.9204 63.9094 67.8344 63.0328 69.5954C62.0766 71.586 59.925 73.1938 57.6938 73.4235C54.825 73.7297 52.9922 71.5094 54.2672 68.9829ZM72.7547 52.1391C74.5875 54.8954 73.2328 59.1063 70.2844 60.7141C68.611 61.6329 66.5391 61.7094 64.6266 62.0157C62.8735 62.3219 61.1203 62.7047 59.4469 63.3172C56.6578 64.3126 53.4703 65.9204 52.4344 68.7532C50.3625 62.7813 52.8328 55.8907 57.9328 51.6797C62.0766 48.2344 69.3282 46.8563 72.7547 52.1391Z" fill="#231F20"/>
<path d="M52.4343 68.7531C53.4703 65.9203 56.7375 64.3125 59.4468 63.3172C61.1203 62.7047 62.8734 62.3219 64.6265 62.0156C66.4593 61.7094 68.6109 61.6328 70.2843 60.7141C73.2328 59.1062 74.5078 54.9719 72.7547 52.1391C69.3281 46.7797 62.0765 48.2344 57.9328 51.6797C52.8328 55.8141 50.3625 62.7812 52.4343 68.7531ZM54.4265 60.1016C54.3468 60.1781 54.2672 60.1781 54.1875 60.2547C54.1875 60.1781 54.2672 60.1016 54.2672 60.025C54.3468 60.025 54.3468 60.1016 54.4265 60.1016Z" fill="#FFF066"/>
</svg>
