<svg width="69" height="74" viewBox="0 0 69 74" fill="none" xmlns="http://www.w3.org/2000/svg">
<path d="M65.7656 9.25L3.23438 32.1553L22.2202 42.0528L27.4383 58.8762L43.4808 53.1412L65.7656 64.75V9.25Z" fill="#FFE94F"/>
<path d="M65.7656 9.25L22.2202 42.0528L27.4383 58.8762L65.7656 9.25Z" fill="#45D4D9"/>
<path d="M22.2202 42.0528L24.0637 48.0075L65.7656 9.25L22.2202 42.0528Z" fill="#2D95B5"/>
<path d="M65.7656 9.25L27.4383 58.8762L43.4808 53.1412L65.7656 9.25Z" fill="#F74B50"/>
<path d="M66.8438 9.1691C66.8482 9.14233 66.8482 9.11493 66.8438 9.08816V9.08816C66.8438 9.08816 66.8438 9.08816 66.8438 9.03035C66.8499 8.97659 66.8499 8.92224 66.8438 8.86848C66.8322 8.83722 66.8137 8.80945 66.7899 8.78754V8.78754L66.6713 8.67191L66.5311 8.60254H66.4664H66.143H66.0675H65.9813L3.45002 31.5194C3.24934 31.5938 3.07359 31.73 2.94482 31.911C2.81605 32.0921 2.73998 32.3098 2.72616 32.5371C2.71235 32.7643 2.76139 32.9908 2.86715 33.1883C2.97291 33.3857 3.13067 33.5453 3.32064 33.6469L21.8967 43.3247L26.4141 59.2463C26.4161 59.2732 26.4161 59.3003 26.4141 59.3272C26.4436 59.393 26.4797 59.455 26.5219 59.5122C26.5591 59.5784 26.6025 59.6404 26.6513 59.6972V59.7666L26.7806 59.8475L26.8561 59.9169H26.9208C27.0001 59.9522 27.0835 59.9756 27.1688 59.9863H27.2981H27.4383C27.5065 59.9919 27.575 59.9919 27.6431 59.9863L43.4053 54.3438L65.2913 65.756C65.4364 65.8448 65.5988 65.8963 65.7656 65.9063C66.0516 65.9063 66.3258 65.7845 66.528 65.5676C66.7302 65.3508 66.8438 65.0567 66.8438 64.75V9.25004C66.8438 9.25004 66.8438 9.25004 66.8438 9.1691ZM42.7369 52.1816L30.6727 56.506L59.491 19.1822L42.7369 52.1816ZM23.4924 42.5038L59.8144 15.1469L27.848 56.5407L23.4924 42.5038ZM58.9519 12.9616L22.1124 40.7116L6.05908 32.375L58.9519 12.9616ZM44.9363 52.621L64.6875 13.7941V62.9L44.9363 52.621Z" fill="#2C2A3D"/>
</svg>
